<?xml version="1.0" standalone="no"?>
<!DOCTYPE svg PUBLIC "-//W3C//DTD SVG 20010904//EN"
 "http://www.w3.org/TR/2001/REC-SVG-20010904/DTD/svg10.dtd">
<svg version="1.0" xmlns="http://www.w3.org/2000/svg"
 width="1500.000000pt" height="1500.000000pt" viewBox="0 0 1500.000000 1500.000000"
 preserveAspectRatio="xMidYMid meet">
<metadata>
Created by potrace 1.11, written by Peter Selinger 2001-2013
</metadata>
<g transform="translate(0.000000,1500.000000) scale(0.100000,-0.100000)"
fill="#000000" stroke="none">
<path d="M7207 13933 c-1 0 -60 -4 -131 -7 -168 -7 -391 -29 -536 -51 -14 -2
-63 -9 -110 -15 -46 -6 -87 -13 -91 -15 -3 -2 -19 -6 -35 -9 -453 -81 -985
-259 -1434 -480 -125 -61 -275 -142 -312 -168 -14 -10 -31 -18 -37 -18 -6 0
-11 -4 -11 -10 0 -5 -4 -10 -10 -10 -11 0 -83 -45 -199 -122 -110 -74 -136
-92 -139 -100 -2 -5 -8 -8 -13 -8 -16 0 -328 -239 -379 -290 -3 -3 -39 -34
-80 -70 -118 -102 -427 -412 -515 -517 -44 -53 -84 -101 -90 -107 -5 -6 -23
-29 -39 -51 -17 -22 -32 -42 -35 -45 -32 -28 -208 -275 -286 -400 -33 -52 -63
-97 -66 -100 -4 -3 -19 -27 -34 -55 -14 -27 -44 -79 -66 -115 -36 -60 -182
-349 -242 -480 -141 -309 -282 -750 -363 -1135 -11 -56 -65 -391 -74 -462 -6
-51 -18 -116 -26 -145 -15 -54 -20 -75 -29 -118 -3 -14 -11 -47 -19 -75 -15
-48 -51 -207 -62 -270 -3 -16 -11 -57 -19 -90 -7 -33 -16 -85 -20 -115 -3 -30
-8 -62 -10 -70 -7 -28 -23 -155 -40 -321 -26 -263 -26 -782 0 -1049 11 -116
17 -176 20 -190 2 -8 6 -37 9 -65 23 -176 84 -490 127 -660 32 -123 114 -387
160 -515 22 -63 45 -132 51 -152 6 -21 14 -38 19 -38 5 0 8 -3 7 -7 -1 -9 2
-19 40 -108 40 -97 65 -150 150 -325 72 -146 112 -222 186 -352 24 -42 132
-218 158 -257 10 -14 21 -33 25 -41 3 -8 9 -17 12 -20 3 -3 26 -34 51 -70 39
-57 155 -217 177 -245 7 -9 63 -80 85 -110 150 -195 520 -580 713 -743 50 -41
95 -81 100 -87 16 -19 266 -218 320 -255 28 -19 52 -38 55 -41 9 -11 224 -155
305 -205 44 -27 82 -52 83 -56 2 -5 7 -8 11 -8 5 0 48 -23 97 -51 138 -80 148
-85 215 -119 35 -17 73 -36 83 -42 72 -39 166 -86 166 -83 0 2 46 -18 103 -44
193 -91 511 -208 737 -271 63 -17 126 -36 140 -40 50 -16 353 -85 420 -95 25
-4 54 -9 65 -11 71 -15 346 -53 425 -60 30 -2 73 -7 95 -9 215 -24 761 -24
985 0 25 3 65 7 90 10 61 6 115 13 240 31 160 23 206 31 290 49 14 2 50 10 80
16 30 5 69 15 86 20 17 5 40 11 50 13 192 38 586 167 854 278 178 74 570 271
578 291 2 4 8 7 13 7 6 0 53 27 106 60 52 33 97 60 100 60 5 0 167 110 293
199 74 52 85 60 108 82 9 9 42 34 73 57 31 22 62 46 70 54 8 7 61 54 119 105
168 147 423 402 545 547 28 32 57 66 66 75 9 9 32 37 51 62 19 26 40 53 46 60
33 40 66 84 138 184 43 61 82 111 86 113 4 2 8 8 8 13 0 5 28 53 63 107 76
116 137 220 137 232 0 4 3 10 8 12 22 10 253 479 316 643 26 66 51 129 56 140
8 18 21 56 75 210 12 37 55 176 61 200 1 6 17 64 34 129 18 66 33 128 35 138
2 10 6 22 9 26 2 4 7 26 10 48 7 44 8 48 29 154 9 41 18 93 21 115 4 22 13 81
21 130 8 50 16 113 19 140 17 154 21 173 65 335 23 83 97 440 105 510 3 25 8
54 10 65 2 11 7 49 11 85 4 36 9 79 11 95 6 41 12 113 20 220 3 50 8 106 10
125 4 48 4 496 -1 600 -7 169 -35 440 -60 583 -8 45 -21 123 -30 172 -8 50
-17 97 -20 105 -2 8 -7 27 -10 43 -3 15 -7 37 -10 50 -3 12 -7 31 -9 42 -36
177 -141 528 -224 750 -111 299 -271 638 -413 877 -32 55 -59 101 -59 103 0 2
-13 23 -28 47 -16 24 -66 102 -113 173 -46 72 -86 132 -89 135 -3 3 -30 39
-60 80 -74 102 -278 358 -358 450 -161 184 -515 519 -753 715 -52 43 -315 238
-334 247 -11 6 -22 14 -25 18 -3 4 -34 25 -70 48 -36 23 -70 45 -76 49 -5 4
-21 15 -35 23 -13 8 -87 52 -164 98 -238 143 -557 300 -820 402 -11 4 -36 15
-55 23 -45 20 -290 105 -355 124 -132 39 -332 93 -365 99 -14 3 -52 12 -85 21
-33 8 -71 17 -85 19 -14 3 -68 13 -120 24 -184 36 -370 62 -605 85 -113 10
-621 26 -628 18z m162 -1463 c9 -5 1 -10 -21 -14 -290 -55 -708 -186 -973
-306 -134 -60 -388 -191 -393 -202 -2 -5 -8 -8 -12 -8 -13 0 -214 -123 -247
-150 -7 -5 -15 -10 -18 -10 -3 0 -38 -24 -78 -53 -40 -28 -90 -64 -112 -79
-22 -15 -51 -38 -65 -50 -14 -13 -43 -36 -65 -53 -70 -52 -287 -247 -385 -345
-127 -127 -302 -325 -365 -414 -11 -16 -24 -33 -30 -40 -38 -44 -191 -262
-220 -313 -5 -10 -26 -45 -46 -78 -21 -33 -46 -77 -58 -97 -12 -21 -31 -55
-42 -75 -31 -54 -90 -171 -91 -180 -1 -5 -14 -29 -29 -54 -14 -25 -30 -57 -34
-70 -4 -13 -16 -42 -25 -64 -88 -196 -215 -570 -245 -718 -2 -10 -6 -26 -9
-35 -3 -9 -7 -28 -10 -42 -2 -14 -9 -43 -14 -65 -6 -22 -13 -56 -16 -75 -3
-19 -10 -60 -16 -90 -12 -62 -14 -73 -35 -225 -18 -135 -25 -210 -30 -345 l-4
-105 50 145 c80 237 236 583 355 790 50 87 98 165 104 170 3 3 19 28 35 55 53
93 252 356 375 496 86 99 359 372 440 439 36 30 67 57 70 60 3 3 25 21 50 40
25 19 47 37 50 40 3 3 25 21 50 40 25 19 50 38 55 43 6 4 42 30 80 57 39 28
78 55 88 62 181 129 750 431 771 410 3 -3 6 0 6 6 0 7 6 12 14 12 7 0 46 14
86 30 256 105 633 212 900 254 144 23 316 46 375 50 39 3 104 8 145 12 90 7
489 7 580 0 36 -3 99 -8 140 -12 41 -3 86 -7 100 -9 14 -2 50 -7 80 -10 30 -3
62 -8 70 -10 8 -2 35 -7 60 -10 40 -5 208 -33 235 -39 173 -38 329 -78 480
-126 117 -37 285 -97 307 -110 10 -6 22 -10 28 -10 6 0 29 -9 53 -19 23 -11
71 -32 107 -46 76 -32 311 -147 307 -151 -2 -2 -45 6 -97 17 -52 11 -108 22
-125 24 -31 4 -99 13 -150 20 -179 26 -659 26 -815 1 -14 -3 -45 -7 -70 -11
-137 -20 -161 -24 -240 -41 -41 -9 -98 -22 -126 -30 -28 -8 -60 -16 -70 -19
-156 -32 -646 -233 -718 -294 -10 -9 -21 -15 -25 -14 -25 7 -394 -246 -541
-372 -85 -73 -311 -303 -375 -382 -38 -47 -75 -91 -80 -97 -10 -11 -87 -118
-131 -181 -31 -44 -116 -182 -149 -240 -34 -59 -125 -243 -125 -252 0 -3 -13
-32 -30 -64 -16 -33 -27 -59 -24 -59 4 0 2 -6 -4 -12 -15 -19 -122 -345 -137
-418 -2 -8 -9 -37 -15 -65 -6 -27 -14 -61 -16 -75 -3 -14 -11 -56 -19 -95 -7
-38 -16 -92 -20 -120 -3 -27 -7 -68 -10 -90 -6 -56 -16 -169 -20 -240 l-3 -60
37 110 c57 168 162 410 227 524 141 248 276 442 408 590 99 110 306 309 396
381 58 46 107 87 110 90 17 18 223 154 325 215 153 89 360 189 495 237 88 31
264 89 280 93 8 2 62 15 120 29 121 29 300 62 380 71 30 3 87 9 125 14 71 10
589 8 635 -2 14 -3 54 -8 90 -12 148 -15 334 -51 515 -100 72 -20 137 -38 145
-40 8 -2 16 -4 18 -5 1 -2 5 -3 10 -5 16 -4 53 -18 202 -77 450 -176 859 -442
1205 -784 154 -152 185 -186 291 -319 257 -321 454 -675 597 -1070 40 -109
111 -364 123 -441 3 -21 8 -42 10 -45 2 -4 8 -38 14 -75 5 -38 12 -81 15 -96
11 -59 18 -134 30 -338 3 -64 -28 -155 -140 -405 -167 -374 -377 -735 -609
-1045 -61 -82 -181 -235 -196 -250 -3 -3 -32 -36 -65 -75 -142 -167 -382 -405
-551 -546 -55 -46 -122 -102 -149 -124 -26 -22 -55 -44 -64 -49 -9 -6 -48 -35
-86 -65 -122 -97 -407 -285 -535 -354 -19 -11 -48 -27 -65 -37 -16 -10 -66
-37 -109 -59 -44 -23 -86 -47 -94 -54 -8 -6 -16 -11 -16 -9 -1 2 -50 -20 -111
-48 -460 -216 -994 -382 -1465 -455 -25 -4 -52 -8 -60 -10 -8 -1 -37 -6 -63
-9 -27 -4 -58 -9 -69 -11 -11 -3 -55 -7 -96 -11 -42 -3 -85 -8 -96 -10 -11 -2
-63 -6 -116 -9 -52 -3 -126 -8 -164 -10 -61 -4 -411 -6 -493 -3 -18 1 -33 4
-33 7 0 3 51 17 113 30 208 44 479 127 702 213 248 97 566 261 800 413 97 63
313 219 356 257 15 13 41 34 59 48 19 14 45 36 60 50 14 14 51 46 81 72 122
105 384 377 476 495 12 15 30 37 40 48 10 11 43 54 73 95 30 41 57 77 60 80 6
5 84 117 105 151 5 9 17 27 26 40 31 46 144 234 143 239 0 3 13 28 29 55 45
76 135 257 197 400 51 118 142 377 185 530 10 33 23 80 31 105 12 42 65 289
78 370 12 68 35 236 41 295 4 33 8 71 11 85 2 14 6 84 10 155 3 72 7 136 10
143 2 7 -1 10 -6 7 -6 -3 -10 -12 -10 -18 0 -18 -75 -243 -111 -334 -73 -185
-206 -464 -289 -608 -97 -168 -268 -426 -322 -485 -7 -8 -24 -31 -38 -50 -13
-19 -34 -46 -46 -60 -12 -14 -50 -59 -85 -100 -121 -145 -441 -455 -589 -571
-30 -23 -57 -45 -60 -49 -11 -13 -222 -162 -320 -225 -58 -37 -117 -76 -132
-86 -15 -11 -29 -19 -32 -19 -2 0 -37 -19 -78 -43 -321 -189 -856 -399 -1204
-472 -11 -2 -48 -10 -84 -19 -36 -8 -78 -17 -95 -20 -16 -3 -70 -12 -120 -20
-87 -15 -131 -21 -225 -31 -25 -3 -58 -7 -75 -10 -35 -4 -171 -15 -270 -21
-97 -5 -387 -5 -460 1 -33 2 -98 7 -144 10 -46 4 -93 8 -105 10 -11 2 -50 6
-86 10 -78 8 -96 10 -180 24 -36 6 -83 13 -105 17 -51 7 -299 65 -429 99 -234
60 -549 179 -825 311 -62 30 -118 54 -124 54 -6 0 -8 2 -5 5 3 3 26 1 52 -5
25 -5 63 -13 82 -16 20 -3 46 -7 57 -10 18 -3 101 -14 217 -29 128 -17 478
-23 610 -11 101 9 184 18 200 21 8 1 40 6 70 10 30 4 64 9 75 11 11 2 34 7 50
9 63 11 257 56 281 65 13 5 36 12 50 14 36 7 93 25 131 42 17 8 35 14 40 14 9
0 115 40 163 62 14 6 30 12 35 13 15 4 273 131 325 161 113 65 172 102 259
162 52 35 99 68 105 73 6 5 49 39 95 76 76 60 225 195 291 264 180 188 260
288 394 492 192 292 323 575 412 887 13 47 28 99 33 115 12 36 60 265 65 309
2 17 7 55 11 85 4 30 9 63 11 75 2 12 6 75 10 141 3 66 7 126 10 133 2 7 0 11
-5 8 -5 -3 -11 -19 -15 -36 -20 -103 -164 -438 -271 -632 -48 -86 -168 -276
-197 -313 -28 -35 -106 -136 -123 -159 -74 -102 -337 -366 -465 -466 -25 -19
-47 -37 -50 -41 -3 -3 -57 -43 -120 -87 -63 -45 -119 -85 -125 -90 -21 -17
-245 -142 -341 -190 -305 -154 -705 -275 -1042 -317 -26 -4 -54 -8 -62 -10
-94 -25 -657 -25 -790 0 -14 2 -50 7 -80 10 -30 3 -66 7 -80 10 -13 3 -42 7
-64 11 -204 30 -558 135 -799 238 -123 52 -310 146 -315 158 -2 4 -9 8 -15 8
-27 0 -348 211 -482 317 -229 180 -502 461 -670 688 -361 489 -603 1074 -675
1635 -6 47 -13 99 -15 115 -2 17 -7 80 -11 140 l-6 110 62 155 c34 85 70 174
81 197 10 23 19 45 19 48 0 7 163 338 170 345 3 3 20 34 39 70 63 121 201 342
298 479 109 153 232 314 245 319 4 2 8 8 8 14 0 6 8 18 18 27 9 9 44 48 77 86
155 181 352 379 534 535 36 30 72 62 81 70 57 53 289 229 429 324 264 181 641
388 921 506 69 29 139 58 155 65 17 7 59 23 95 36 131 45 161 56 167 63 3 3
15 6 25 6 10 0 26 4 36 9 9 5 44 17 77 26 33 10 80 24 105 32 25 8 56 17 70
19 14 3 77 18 140 34 63 16 131 32 150 35 19 3 78 15 130 25 52 10 145 26 205
35 61 9 121 18 135 21 14 2 54 7 90 10 36 3 70 7 77 9 6 2 67 7 135 11 68 3
124 8 126 9 8 7 561 2 571 -5z"/>
</g>
</svg>
